# xmcd
#
# Track frame offsets:
#	150
#	22612
#	41505
#	60312
#	78527
#	95727
#	112377
#	132570
#	151292
#	167062
#
# Disc length: 2460 seconds
#
# Revision: 0
# Processed by: cddbd v1.5.2PL0 Copyright (c) Steve Scherf et al.
# Submitted via: EasyCDDAExtractor 15.2.1.1
#
DISCID=7d099a0a
DTITLE=Lucia Mendez - Se prohibe
DYEAR=1993
DGENRE=
TTITLE0=Vete
TTITLE1=Marielena
TTITLE2=Esta misma noche
TTITLE3=Caricias de humo
TTITLE4=Pobre corazon
TTITLE5=Se prohibe
TTITLE6=Esta historia la conozco
TTITLE7=No es falta de amor
TTITLE8=Desde adentro
TTITLE9=Se me olvido tu cara
EXTD=
EXTT0=
EXTT1=
EXTT2=
EXTT3=
EXTT4=
EXTT5=
EXTT6=
EXTT7=
EXTT8=
EXTT9=
PLAYORDER=
